<svg xmlns="http://www.w3.org/2000/svg" viewBox="0 0 1200 630" width="1200" height="630" role="img" aria-labelledby="title desc">
  <title id="title">A Tua Vida nos Astros - imagem social</title>
  <desc id="desc">Imagem de compartilhamento da marca Atlas Essencial.</desc>
  <rect width="1200" height="630" fill="#031744"/>
  <circle cx="1050" cy="95" r="225" fill="none" stroke="#3176C2" stroke-width="1" opacity=".25"/>
  <circle cx="1050" cy="95" r="155" fill="none" stroke="#BF9153" stroke-width="1" opacity=".28"/>
  <path d="M 1080.00 80.00 C 1081.17 92.56, 1081.62 92.92, 1089.00 94.00 C 1081.62 95.08, 1081.17 95.44, 1080.00 108.00 C 1078.83 95.44, 1078.38 95.08, 1071.00 94.00 C 1078.38 92.92, 1078.83 92.56, 1080.00 80.00 Z" fill="#BF9153" opacity=".8"/>
  <g transform="translate(80 115) scale(.75)"><circle cx="128" cy="128" r="114" fill="#FCFBF8"/>
  <circle cx="128" cy="128" r="108" fill="none" stroke="#BF9153" stroke-width="4"/>
  <path d="M 128.00 40.00 C 130.21 62.28, 131.06 62.96, 145.00 65.00 C 131.06 67.04, 130.21 67.72, 128.00 90.00 C 125.79 67.72, 124.94 67.04, 111.00 65.00 C 124.94 62.96, 125.79 62.28, 128.00 40.00 Z" fill="#031744"/>
  <path d="M 51 125 C 78 116, 104 124, 128 151 C 152 124, 178 116, 205 125" fill="none" stroke="#031744" stroke-width="12" stroke-linecap="round"/>
  <path d="M 55 148 C 81 141, 105 150, 128 175 C 151 150, 175 141, 201 148" fill="none" stroke="#031744" stroke-width="7" stroke-linecap="round"/>
  <circle cx="128" cy="202" r="4.5" fill="#031744"/>
  <path d="M 83 201 H 113 M 143 201 H 173" stroke="#031744" stroke-width="2" stroke-linecap="round"/></g>
  <g transform="translate(300 145) scale(.72)"><g fill="#FCFBF8" transform="translate(64.16 34.00) scale(1.00000)">
    <path d="M35.33381751728058 133.26855739498137V132.7992527074814H89.72289374637603V133.26855739498137ZM69.92515104293823 41.363351562500014 116.43404999828338 175.5306953125H128.96371204853057V176.0H75.45147668266296V175.5306953125H93.70023703956603L58.69356195354462 67.08596854209901L20.7058800907135 175.5306953125H41.962277610778806V176.0H3.2413390750885007V175.5306953125H20.19591765163238L67.09002548027038 41.363351562500014Z"/>
    <path d="M214.61238157081604 176.0V175.5306953125H233.97238157081603V44.4693046875H218.0584079769982Q210.4750951938629 44.4693046875 205.36234607028962 47.5114384765625Q200.2495969467163 50.55357226562501 197.09366331426304 56.00196679687501Q193.93772968180974 61.45036132812501 192.43376729846 68.7148193359375Q190.92980491511025 75.97927734375 190.64641526667276 84.33927734375H190.1693390750885V44.0H297.45206417369843V84.33927734375H296.9056885704603Q296.63462021108535 75.97927734375 295.1244615623756 68.7148193359375Q293.61430291366577 61.45036132812501 290.457125667572 56.00196679687501Q287.29994842147823 50.55357226562501 282.1514327964783 47.5114384765625Q277.00291717147826 44.4693046875 269.47007057560813 44.4693046875H253.649490945816V175.5306953125H273.009490945816V176.0Z"/>
    <path d="M419.0138817625046 44.0V44.4693046875H401.62051509284976V135.52Q401.62051509284976 157.256 392.3799367089272 167.94632421875002Q383.1393583250046 178.6366484375 362.0985389890671 178.6366484375Q338.7520809812546 178.6366484375 327.93245842266083 168.47432421875Q317.1128358640671 158.312 317.1128358640671 135.52V44.4693046875H301.34804530715945V44.0H354.4656239500046V44.4693046875H336.8656239500046V133.76Q336.8656239500046 142.472 338.0734077236286 150.34957608014386Q339.28119149725256 158.22715216028772 342.4470449897876 164.3239300544862Q345.6128984823227 170.42070794868468 351.4404441289415 173.94139714288713Q357.26798977556035 177.46208633708954 366.48337556266785 177.46208633708954Q377.87222126579286 177.46208633708954 385.5861804499626 172.92122770929336Q393.3001396341324 168.38036908149718 397.2268815331459 159.0878183002472Q401.1536234321594 149.7952675189972 401.1536234321594 135.52V44.4693046875H384.5530488729477V44.0Z"/>
    <path d="M459.0378175172806 133.26855739498137V132.7992527074814H513.426893746376V133.26855739498137ZM493.62915104293825 41.363351562500014 540.1380499982833 175.5306953125H552.6677120485306V176.0H499.155476682663V175.5306953125H517.404237039566L482.3975619535446 67.08596854209901L444.4098800907135 175.5306953125H465.6662776107788V176.0H426.9453390750885V175.5306953125H443.8999176516324L490.7940254802704 41.363351562500014Z"/>
    <path d="M747.4187402057648 44.0V44.4693046875H731.9534763708115L683.4981959199906 178.6366484375H680.7130084791185L634.1260177860261 44.4693046875H621.7505954523087V44.0H676.2405563898087V44.4693046875H656.9355094556809L692.1753878440858 152.93423362064362L731.3189387435914 44.4693046875H708.6977355594636V44.0Z"/>
    <path d="M747.1973390750885 176.0V175.5306953125H766.4810004733159V44.4693046875H747.1973390750885V44.0H807.3549177179336V44.4693046875H786.2392938488447V175.5306953125H807.3549177179336V176.0Z"/>
    <path d="M866.4285262246236 44.0Q886.398056848526 44.0 900.81142198932 52.569429687500005Q915.2247871301141 61.13885937500001 923.023852424024 76.074216796875Q930.8229177179337 91.00957421875 930.8229177179337 110.0Q930.8229177179337 124.2648193359375 926.155073709011 136.30146191406251Q921.4872297000885 148.3381044921875 912.928338098526 157.25865869140625Q904.3694464969635 166.179212890625 892.5624665164949 171.08960644531248Q880.7554865360261 176.0 866.404418176651 176.0H815.2253390750885V175.5306953125H830.993011926651V44.4693046875H815.2253390750885V44.0ZM850.7458000125886 175.5306953125H866.404418176651Q877.9939601688385 175.5306953125 885.8901608524322 169.97169921875002Q893.786361536026 164.412703125 898.5682570438385 155.05457666015627Q903.350152551651 145.6964501953125 905.4515822391511 133.973919921875Q907.553011926651 122.25138964843751 907.553011926651 109.95767578125Q907.553011926651 97.67581393527985 905.1937428836823 85.99230124447591Q902.8344738407135 74.30878855367197 897.9082570438385 64.948042714336Q892.9820402469635 55.58729687500001 885.180000207901 50.02830078125Q877.3779601688385 44.4693046875 866.404418176651 44.4693046875H850.7458000125886Z"/>
    <path d="M974.9218175172807 133.26855739498137V132.7992527074814H1029.3108937463762V133.26855739498137ZM1009.5131510429383 41.363351562500014 1056.0220499982834 175.5306953125H1068.5517120485306V176.0H1015.039476682663V175.5306953125H1033.2882370395662L998.2815619535447 67.08596854209901L960.2938800907136 175.5306953125H981.5502776107788V176.0H942.8293390750886V175.5306953125H959.7839176516325L1006.6780254802704 41.363351562500014Z"/>
  </g>
  <g fill="#FCFBF8" transform="translate(401.57 238.00)">
    <path d="M2.9592070312499996 36.0V10.5393603515625H7.456306640625L20.13553125 30.1536650390625V10.5393603515625H24.079658203125V36.0H19.680477539062498L6.903333984374999 16.492253906250003V36.0Z"/>
    <path d="M58.803837890625005 36.288Q54.8611171875 36.288 52.1366396484375 34.613279296875Q49.412162109375004 32.93855859375 48.001684570312506 29.99087841796875Q46.59120703125 27.0431982421875 46.59120703125 23.292Q46.59120703125 19.4875224609375 48.014644042968754 16.539842285156254Q49.4380810546875 13.592162109375003 52.1711982421875 11.917441406250003Q54.9043154296875 10.242720703125002 58.8470361328125 10.242720703125002Q62.7811171875 10.242720703125002 65.49191455078125 11.908801757812501Q68.2027119140625 13.5748828125 69.62614892578125 16.51392333984375Q71.0495859375 19.452963867187503 71.0495859375 23.2488017578125Q71.0495859375 27.0 69.63046875 29.95631982421875Q68.2113515625 32.9126396484375 65.48759472656249 34.600319824218744Q62.763837890625 36.288 58.803837890625005 36.288ZM58.838396484375 32.64915234375Q61.689603515624995 32.64915234375 63.504008789062496 31.3409091796875Q65.3184140625 30.032666015625 66.167296875 27.901458984375Q67.0161796875 25.770251953125 67.0161796875 23.292Q67.0161796875 21.428630859375 66.5373779296875 19.73014453125Q66.058576171875 18.031658203125 65.06065283203125 16.714054687500003Q64.0627294921875 15.396451171875 62.5104052734375 14.639009765625001Q60.9580810546875 13.881568359375002 58.8297568359375 13.881568359375002Q56.014549804687505 13.881568359375002 54.18646435546876 15.194852050781252Q52.35837890625 16.508135742187502 51.477815917968755 18.6393427734375Q50.5972529296875 20.7705498046875 50.5972529296875 23.2833603515625Q50.5972529296875 25.768810546875002 51.46845556640625 27.900017578125002Q52.339658203125 30.031224609375002 54.1720634765625 31.340188476562503Q56.00446875 32.64915234375 58.838396484375 32.64915234375Z"/>
    <path d="M102.92399999999999 36.288Q100.41696386718749 36.288 98.21448632812499 35.55720263671875Q96.01200878906249 34.8264052734375 94.49568896484374 33.18840966796875Q92.979369140625 31.5504140625 92.49120703125 28.873458984375H96.5534150390625Q96.9969375 30.3465849609375 98.02294189453124 31.18178759765625Q99.0489462890625 32.016990234375 100.41695068359374 32.34603076171875Q101.784955078125 32.6750712890625 103.191837890625 32.6750712890625Q104.4864052734375 32.6750712890625 105.63913037109374 32.32586865234375Q106.79185546874999 31.976666015625 107.53273828124999 31.1702607421875Q108.27362109375 30.36385546875 108.27362109375 29.0606484375Q108.27362109375 28.0555224609375 107.88554003906249 27.426238769531253Q107.49745898437499 26.796955078125002 106.80265722656249 26.39879296875Q106.10785546874999 26.000630859375 105.1430537109375 25.7385498046875Q104.05296386718749 25.3929462890625 102.82175244140623 25.1567841796875Q101.59054101562499 24.9206220703125 100.40468994140625 24.602378906250003Q99.21883886718749 24.2841357421875 98.174830078125 23.80173046875Q97.214361328125 23.4330908203125 96.32949169921875 22.911090820312502Q95.44462207031249 22.389090820312504 94.79159033203123 21.648212402343752Q94.13855859374999 20.907333984375 93.75192333984374 19.8777392578125Q93.3652880859375 18.84814453125 93.3652880859375 17.5003154296875Q93.3652880859375 15.785279296875 93.9211259765625 14.549761230468752Q94.4769638671875 13.314243164062503 95.41872070312499 12.481923339843753Q96.3604775390625 11.649603515625003 97.572955078125 11.162882812500003Q98.7854326171875 10.676162109375003 100.11239208984375 10.459441406250003Q101.4393515625 10.242720703125002 102.7108740234375 10.242720703125002Q105.019189453125 10.242720703125002 106.96678857421874 10.986477539062502Q108.91438769531248 11.730234375000002 110.183748046875 13.309910156250002Q111.4531083984375 14.889585937500001 111.59566699218749 17.4527841796875H107.75809863281249Q107.59537792968749 16.1135771484375 106.8364951171875 15.323014160156252Q106.07761230468749 14.532451171875003 104.94432861328124 14.185410644531252Q103.811044921875 13.838370117187502 102.50352246093749 13.838370117187502Q101.5819189453125 13.838370117187502 100.66391455078124 14.001090820312502Q99.74591015624999 14.163811523437502 99.00358593749999 14.557653808593752Q98.26126171874999 14.951496093750002 97.81773925781249 15.617500488281252Q97.37421679687499 16.2835048828125 97.37421679687499 17.290072265625Q97.37421679687499 18.139675781250002 97.74213574218749 18.7819189453125Q98.1100546875 19.424162109375 98.773171875 19.862644042968753Q99.4362890625 20.301125976562503 100.29452343749999 20.6251259765625Q101.7546943359375 21.206891601562504 103.49350927734375 21.4970537109375Q105.23232421875 21.7872158203125 106.76593652343749 22.3142607421875Q107.9668916015625 22.6742607421875 108.98352685546874 23.1969814453125Q110.000162109375 23.7197021484375 110.733837890625 24.448341796875Q111.467513671875 25.1769814453125 111.87431103515624 26.1813779296875Q112.2811083984375 27.1857744140625 112.2811083984375 28.536486328125Q112.2811083984375 30.667684570312503 111.5265498046875 32.151603515625Q110.7719912109375 33.6355224609375 109.4601533203125 34.5528017578125Q108.1483154296875 35.4700810546875 106.46279736328125 35.87904052734375Q104.777279296875 36.288 102.92399999999999 36.288Z"/>
    <path d="M162.6624052734375 36.0 172.31183789062501 10.5393603515625H177.3215771484375L186.91773046875002 36.0H182.66112597656252L180.82655859375 30.97726171875H168.75357714843753L166.9103701171875 36.0ZM170.03948730468753 27.407531249999998H179.5406484375L174.80302734375002 14.363956054687502Z"/>
    <path d="M217.47600000000003 36.288Q214.9689638671875 36.288 212.766486328125 35.55720263671875Q210.5640087890625 34.8264052734375 209.04768896484376 33.18840966796875Q207.531369140625 31.5504140625 207.04320703125 28.873458984375H211.1054150390625Q211.54893750000002 30.3465849609375 212.57494189453126 31.18178759765625Q213.6009462890625 32.016990234375 214.96895068359376 32.34603076171875Q216.33695507812502 32.6750712890625 217.743837890625 32.6750712890625Q219.03840527343752 32.6750712890625 220.19113037109378 32.32586865234375Q221.34385546875 31.976666015625 222.08473828125 31.1702607421875Q222.82562109375002 30.36385546875 222.82562109375002 29.0606484375Q222.82562109375002 28.0555224609375 222.43754003906253 27.426238769531253Q222.049458984375 26.796955078125002 221.3546572265625 26.39879296875Q220.65985546875 26.000630859375 219.69505371093751 25.7385498046875Q218.6049638671875 25.3929462890625 217.37375244140628 25.1567841796875Q216.14254101562503 24.9206220703125 214.95668994140627 24.602378906250003Q213.7708388671875 24.2841357421875 212.726830078125 23.80173046875Q211.76636132812502 23.4330908203125 210.88149169921877 22.911090820312502Q209.99662207031253 22.389090820312504 209.34359033203128 21.648212402343752Q208.69055859375 20.907333984375 208.30392333984378 19.8777392578125Q207.9172880859375 18.84814453125 207.9172880859375 17.5003154296875Q207.9172880859375 15.785279296875 208.47312597656253 14.549761230468752Q209.0289638671875 13.314243164062503 209.970720703125 12.481923339843753Q210.9124775390625 11.649603515625003 212.12495507812503 11.162882812500003Q213.33743261718752 10.676162109375003 214.66439208984377 10.459441406250003Q215.99135156250003 10.242720703125002 217.26287402343752 10.242720703125002Q219.57118945312502 10.242720703125002 221.51878857421877 10.986477539062502Q223.4663876953125 11.730234375000002 224.73574804687502 13.309910156250002Q226.00510839843753 14.889585937500001 226.1476669921875 17.4527841796875H222.31009863281253Q222.1473779296875 16.1135771484375 221.38849511718752 15.323014160156252Q220.62961230468753 14.532451171875003 219.49632861328126 14.185410644531252Q218.363044921875 13.838370117187502 217.0555224609375 13.838370117187502Q216.1339189453125 13.838370117187502 215.21591455078126 14.001090820312502Q214.29791015625003 14.163811523437502 213.55558593750004 14.557653808593752Q212.81326171875003 14.951496093750002 212.3697392578125 15.617500488281252Q211.92621679687502 16.2835048828125 211.92621679687502 17.290072265625Q211.92621679687502 18.139675781250002 212.2941357421875 18.7819189453125Q212.66205468750002 19.424162109375 213.32517187500002 19.862644042968753Q213.98828906250003 20.301125976562503 214.84652343750003 20.6251259765625Q216.30669433593752 21.206891601562504 218.04550927734377 21.4970537109375Q219.78432421875002 21.7872158203125 221.3179365234375 22.3142607421875Q222.51889160156253 22.6742607421875 223.5355268554688 23.1969814453125Q224.55216210937502 23.7197021484375 225.28583789062503 24.448341796875Q226.01951367187502 25.1769814453125 226.42631103515626 26.1813779296875Q226.8331083984375 27.1857744140625 226.8331083984375 28.536486328125Q226.8331083984375 30.667684570312503 226.0785498046875 32.151603515625Q225.32399121093752 33.6355224609375 224.0121533203125 34.5528017578125Q222.70031542968752 35.4700810546875 221.01479736328128 35.87904052734375Q219.32927929687503 36.288 217.47600000000003 36.288Z"/>
    <path d="M255.19536914062502 36.0V14.152289062500003H247.17024316406253V10.5393603515625H267.17326171875004V14.152289062500003H259.13949609375004V36.0Z"/>
    <path d="M288.54720703125 36.0V10.5393603515625H298.380955078125Q300.40991894531254 10.5393603515625 302.11415771484377 10.945441406250001Q303.818396484375 11.351522460937503 305.09279296875 12.274562988281252Q306.36718945312504 13.197603515625001 307.07062646484377 14.75784228515625Q307.7740634765625 16.3180810546875 307.7740634765625 18.5990361328125Q307.7740634765625 20.610720703125 307.0511806640625 22.096081054687502Q306.3282978515625 23.58144140625 305.07981591796874 24.5606396484375Q303.831333984375 25.539837890625 302.250216796875 26.0323154296875L307.716451171875 36.0H303.3374501953125L298.3046484375 26.684630859374998H292.49133398437505V36.0ZM292.49133398437505 23.149458984375002H297.62350488281254Q298.91518945312504 23.149458984375002 300.02759472656254 22.942098632812503Q301.14000000000004 22.734738281250003 301.9816845703125 22.228576171875Q302.823369140625 21.7224140625 303.294251953125 20.82168896484375Q303.765134765625 19.920963867187503 303.7924951171875 18.525594726562503Q303.81985546875 16.888306640625 303.15169335937503 15.932860839843752Q302.48353125 14.977415039062503 301.21776562499997 14.564852050781253Q299.952 14.152289062500003 298.16927050781254 14.152289062500003H292.49133398437505Z"/>
    <path d="M341.47583789062503 36.288Q337.5331171875 36.288 334.8086396484375 34.613279296875Q332.08416210937503 32.93855859375 330.6736845703125 29.99087841796875Q329.26320703125003 27.0431982421875 329.26320703125003 23.292Q329.26320703125003 19.4875224609375 330.68664404296874 16.539842285156254Q332.1100810546875 13.592162109375003 334.8431982421875 11.917441406250003Q337.5763154296875 10.242720703125002 341.5190361328125 10.242720703125002Q345.4531171875 10.242720703125002 348.16391455078127 11.908801757812501Q350.8747119140625 13.5748828125 352.2981489257813 16.51392333984375Q353.72158593750004 19.452963867187503 353.72158593750004 23.2488017578125Q353.72158593750004 27.0 352.30246875 29.95631982421875Q350.8833515625 32.9126396484375 348.15959472656255 34.600319824218744Q345.435837890625 36.288 341.47583789062503 36.288ZM341.510396484375 32.64915234375Q344.361603515625 32.64915234375 346.1760087890625 31.3409091796875Q347.9904140625 30.032666015625 348.839296875 27.901458984375Q349.6881796875 25.770251953125 349.6881796875 23.292Q349.6881796875 21.428630859375 349.20937792968755 19.73014453125Q348.73057617187504 18.031658203125 347.73265283203125 16.714054687500003Q346.7347294921875 15.396451171875 345.18240527343755 14.639009765625001Q343.63008105468754 13.881568359375002 341.5017568359375 13.881568359375002Q338.6865498046875 13.881568359375002 336.85846435546875 15.194852050781252Q335.03037890625 16.508135742187502 334.1498159179688 18.6393427734375Q333.2692529296875 20.7705498046875 333.2692529296875 23.2833603515625Q333.2692529296875 25.768810546875002 334.1404555664063 27.900017578125002Q335.011658203125 30.031224609375002 336.8440634765625 31.340188476562503Q338.67646875 32.64915234375 341.510396484375 32.64915234375Z"/>
    <path d="M385.596 36.288Q383.0889638671875 36.288 380.886486328125 35.55720263671875Q378.6840087890625 34.8264052734375 377.1676889648437 33.18840966796875Q375.651369140625 31.5504140625 375.16320703125 28.873458984375H379.2254150390625Q379.66893749999997 30.3465849609375 380.6949418945312 31.18178759765625Q381.7209462890625 32.016990234375 383.0889506835938 32.34603076171875Q384.456955078125 32.6750712890625 385.863837890625 32.6750712890625Q387.1584052734375 32.6750712890625 388.3111303710938 32.32586865234375Q389.46385546875 31.976666015625 390.20473828125 31.1702607421875Q390.94562109375 30.36385546875 390.94562109375 29.0606484375Q390.94562109375 28.0555224609375 390.5575400390625 27.426238769531253Q390.169458984375 26.796955078125002 389.4746572265625 26.39879296875Q388.77985546875 26.000630859375 387.8150537109375 25.7385498046875Q386.7249638671875 25.3929462890625 385.4937524414063 25.1567841796875Q384.262541015625 24.9206220703125 383.07668994140624 24.602378906250003Q381.8908388671875 24.2841357421875 380.846830078125 23.80173046875Q379.88636132812496 23.4330908203125 379.0014916992187 22.911090820312502Q378.1166220703125 22.389090820312504 377.46359033203123 21.648212402343752Q376.81055859375 20.907333984375 376.4239233398438 19.8777392578125Q376.0372880859375 18.84814453125 376.0372880859375 17.5003154296875Q376.0372880859375 15.785279296875 376.59312597656253 14.549761230468752Q377.1489638671875 13.314243164062503 378.090720703125 12.481923339843753Q379.0324775390625 11.649603515625003 380.244955078125 11.162882812500003Q381.45743261718746 10.676162109375003 382.7843920898437 10.459441406250003Q384.1113515625 10.242720703125002 385.38287402343747 10.242720703125002Q387.691189453125 10.242720703125002 389.6387885742188 10.986477539062502Q391.5863876953125 11.730234375000002 392.85574804687496 13.309910156250002Q394.1251083984375 14.889585937500001 394.2676669921875 17.4527841796875H390.4300986328125Q390.2673779296875 16.1135771484375 389.5084951171875 15.323014160156252Q388.7496123046875 14.532451171875003 387.6163286132812 14.185410644531252Q386.483044921875 13.838370117187502 385.1755224609375 13.838370117187502Q384.2539189453125 13.838370117187502 383.33591455078124 14.001090820312502Q382.41791015625 14.163811523437502 381.6755859375 14.557653808593752Q380.93326171875 14.951496093750002 380.4897392578125 15.617500488281252Q380.046216796875 16.2835048828125 380.046216796875 17.290072265625Q380.046216796875 18.139675781250002 380.41413574218745 18.7819189453125Q380.78205468749996 19.424162109375 381.44517187499997 19.862644042968753Q382.1082890625 20.301125976562503 382.9665234375 20.6251259765625Q384.4266943359375 21.206891601562504 386.16550927734374 21.4970537109375Q387.90432421875 21.7872158203125 389.4379365234375 22.3142607421875Q390.6388916015625 22.6742607421875 391.65552685546874 23.1969814453125Q392.672162109375 23.7197021484375 393.405837890625 24.448341796875Q394.13951367187497 25.1769814453125 394.54631103515624 26.1813779296875Q394.9531083984375 27.1857744140625 394.9531083984375 28.536486328125Q394.9531083984375 30.667684570312503 394.1985498046875 32.151603515625Q393.4439912109375 33.6355224609375 392.13215332031245 34.5528017578125Q390.82031542968747 35.4700810546875 389.1347973632812 35.87904052734375Q387.449279296875 36.288 385.596 36.288Z"/>
  </g>
  <path d="M 841.38 34.00 C 842.81 49.24, 843.36 49.68, 852.38 51.00 C 843.36 52.32, 842.81 52.76, 841.38 68.00 C 839.95 52.76, 839.40 52.32, 830.38 51.00 C 839.40 49.68, 839.95 49.24, 841.38 34.00 Z" fill="#BF9153"/>
  <path d="M 1110 213 C 1140 214, 1163 207, 1180 193" fill="none" stroke="#BF9153" stroke-width="2" stroke-linecap="round"/></g>
  <g fill="#DAB97B" transform="translate(309.80 500)">
    <path d="M9.140997314453125 25.2Q6.6239990234375 25.2 5.029000854492188 24.195999145507812Q3.4340026855468753 23.191998291015626 2.6820037841796878 21.405499267578126Q1.9300048828125 19.619000244140626 1.9300048828125 17.249005126953126V7.319000244140625H4.66898193359375V17.296002197265626Q4.66898193359375 18.740008544921874 5.089483642578125 19.969512939453125Q5.5099853515625 21.199017333984376 6.500988769531251 21.942019653320315Q7.4919921875 22.68502197265625 9.1719970703125 22.68502197265625Q10.877001953125001 22.68502197265625 11.827505493164065 21.939019775390626Q12.778009033203126 21.193017578125 13.177011108398439 19.96351318359375Q13.576013183593751 18.7340087890625 13.576013183593751 17.296002197265626V7.319000244140625H16.333990478515627V17.249005126953126Q16.333990478515627 19.594000244140624 15.584991455078127 21.389999389648438Q14.835992431640626 23.18599853515625 13.249993896484376 24.192999267578124Q11.663995361328126 25.2 9.140997314453125 25.2Z"/>
    <path d="M25.330004882812503 25.0V7.319000244140625H29.211981201171877L34.277990722656256 16.570019531249997L39.280999755859376 7.319000244140625H43.051977539062506V25.0H40.313000488281254V10.608959960937499L34.811987304687506 20.644989013671875H33.62599487304688L28.068981933593754 10.608959960937499V25.0Z"/>
    <path d="M63.76000366210938 25.0 70.46099853515626 7.319000244140625H73.93998413085939L80.6039794921875 25.0H77.64800415039063L76.3739990234375 21.5119873046875H67.98998413085938L66.70997924804688 25.0ZM68.88297729492189 19.0330078125H75.48100585937502L72.19099121093751 9.974969482421875Z"/>
    <path d="M91.64400634765626 25.0V9.827978515624999H86.07100219726563V7.319000244140625H99.96198730468751V9.827978515624999H94.3829833984375V25.0Z"/>
    <path d="M107.3050048828125 25.0V7.319000244140625H110.04398193359376V22.497021484375H119.44999389648437V25.0Z"/>
    <path d="M124.96000366210937 25.0 131.66099853515624 7.319000244140625H135.13998413085938L141.8039794921875 25.0H138.84800415039064L137.5739990234375 21.5119873046875H129.1899841308594L127.90997924804687 25.0ZM130.08297729492188 19.0330078125H136.681005859375L133.3909912109375 9.974969482421875Z"/>
    <path d="M155.525 25.2Q153.78400268554688 25.2 152.25450439453124 24.692501831054685Q150.72500610351562 24.185003662109374 149.67200622558593 23.047506713867186Q148.61900634765624 21.910009765625 148.2800048828125 20.05101318359375H151.10098266601562Q151.408984375 21.074017333984376 152.12148742675782 21.654019165039063Q152.83399047851563 22.23402099609375 153.78399353027345 22.462521362304688Q154.73399658203124 22.691021728515626 155.71099853515625 22.691021728515626Q156.61000366210936 22.691021728515626 157.41050720214844 22.44851989746094Q158.21101074218748 22.20601806640625 158.7255126953125 21.646014404296878Q159.2400146484375 21.0860107421875 159.2400146484375 20.181005859375Q159.2400146484375 19.483001708984375 158.97051391601562 19.045999145507814Q158.70101318359374 18.60899658203125 158.2185119628906 18.3324951171875Q157.7360107421875 18.05599365234375 157.06600952148438 17.873992919921875Q156.30900268554686 17.633990478515624 155.45399475097656 17.469989013671874Q154.59898681640624 17.305987548828124 153.77547912597657 17.0849853515625Q152.95197143554688 16.863983154296875 152.22696533203126 16.5289794921875Q151.55997314453126 16.272979736328125 150.9454803466797 15.910479736328124Q150.33098754882812 15.547979736328125 149.8774932861328 15.033480834960937Q149.4239990234375 14.51898193359375 149.15550231933594 13.803985595703125Q148.88700561523436 13.0889892578125 148.88700561523436 12.152996826171874Q148.88700561523436 10.96199951171875 149.27300415039062 10.104000854492188Q149.65900268554688 9.246002197265625 150.31300048828126 8.668002319335937Q150.9669982910156 8.090002441406249 151.80899658203123 7.752001953124999Q152.65099487304687 7.41400146484375 153.57249450683594 7.263500976562499Q154.493994140625 7.113000488281248 155.37699584960936 7.113000488281248Q156.97999267578123 7.113000488281248 158.33249206542968 7.629498291015624Q159.68499145507812 8.14599609375 160.56649169921874 9.2429931640625Q161.44799194335937 10.339990234375 161.54699096679687 12.119989013671875H158.88201293945312Q158.76901245117188 11.189984130859374 158.24201049804685 10.640982055664061Q157.71500854492186 10.09197998046875 156.9280059814453 9.850979614257813Q156.14100341796873 9.609979248046875 155.23300170898438 9.609979248046875Q154.5929992675781 9.609979248046875 153.9554962158203 9.722979736328124Q153.3179931640625 9.835980224609374 152.802490234375 10.109481811523438Q152.2869873046875 10.3829833984375 151.97898559570314 10.845486450195311Q151.67098388671874 11.307989501953124 151.67098388671874 12.006994628906249Q151.67098388671874 12.596997070312499 151.92648315429688 13.042999267578125Q152.181982421875 13.48900146484375 152.64248046875 13.793502807617188Q153.10297851562498 14.098004150390624 153.698974609375 14.323004150390624Q154.71298217773438 14.727008056640624 155.92049255371091 14.928509521484374Q157.12800292968748 15.130010986328124 158.19301147460936 15.496014404296874Q159.02700805664062 15.746014404296874 159.73300476074218 16.109014892578124Q160.43900146484376 16.472015380859375 160.94849853515626 16.97801513671875Q161.45799560546874 17.484014892578124 161.74049377441406 18.181512451171876Q162.02299194335936 18.879010009765626 162.02299194335936 19.81700439453125Q162.02299194335936 21.297003173828124 161.49899291992188 22.32750244140625Q160.97499389648436 23.358001708984375 160.06399536132812 23.995001220703124Q159.15299682617186 24.632000732421876 157.9824981689453 24.916000366210938Q156.81199951171874 25.2 155.525 25.2Z"/>
    <path d="M183.9050048828125 25.0V7.319000244140625H196.1339904785156V9.827978515624999H186.64398193359375V14.99801025390625H195.02099609375V17.47799072265625H186.64398193359375V22.491021728515626H196.1339904785156V25.0Z"/>
    <path d="M204.2800048828125 25.0V7.319000244140625H210.71099853515625Q213.472998046875 7.319000244140625 215.3679962158203 8.40150146484375Q217.26299438476562 9.484002685546875 218.24249267578125 11.468502807617188Q219.22199096679688 13.4530029296875 219.22199096679688 16.180999755859375Q219.22199096679688 18.8719970703125 218.26099243164063 20.853497314453122Q217.29999389648438 22.83499755859375 215.40799560546876 23.917498779296874Q213.51599731445313 25.0 210.722998046875 25.0ZM207.01898193359375 22.503021240234375H210.62099609375Q212.65700073242186 22.503021240234375 213.93600463867188 21.6940185546875Q215.21500854492186 20.885015869140624 215.83001098632812 19.464511108398437Q216.44501342773438 18.04400634765625 216.44501342773438 16.174999999999997Q216.44501342773438 14.355993652343749 215.84251098632814 12.919989013671874Q215.24000854492186 11.483984374999999 213.97100524902345 10.649981689453124Q212.702001953125 9.81597900390625 210.6739990234375 9.81597900390625H207.01898193359375Z"/>
    <path d="M227.3800048828125 25.0V7.319000244140625H230.11898193359374V25.0Z"/>
    <path d="M243.04400634765622 25.0V9.827978515624999H237.47100219726562V7.319000244140625H251.3619873046875V9.827978515624999H245.7829833984375V25.0Z"/>
    <path d="M266.21099853515625 25.2Q263.472998046875 25.2 261.58099975585935 24.036999511718747Q259.6890014648437 22.8739990234375 258.7095031738281 20.826998901367187Q257.73000488281247 18.779998779296875 257.73000488281247 16.174999999999997Q257.73000488281247 13.533001708984374 258.71850280761714 11.48600158691406Q259.7070007324219 9.439001464843749 261.60499877929686 8.276000976562498Q263.50299682617185 7.113000488281248 266.2409973144531 7.113000488281248Q268.972998046875 7.113000488281248 270.85549621582027 8.270001220703124Q272.7379943847656 9.427001953125 273.7264923095703 11.468002319335938Q274.71499023437497 13.509002685546875 274.71499023437497 16.145001220703122Q274.71499023437497 18.75 273.7294921875 20.802999877929686Q272.743994140625 22.855999755859376 270.8524963378906 24.027999877929688Q268.96099853515625 25.2 266.21099853515625 25.2ZM266.2349975585937 22.6730224609375Q268.2150024414062 22.6730224609375 269.4750061035156 21.764520263671876Q270.73500976562497 20.85601806640625 271.32451171874993 19.37601318359375Q271.91401367187495 17.89600830078125 271.91401367187495 16.174999999999997Q271.91401367187495 14.880993652343749 271.5815124511719 13.701489257812499Q271.24901123046874 12.521984863281249 270.55600891113284 11.606982421875Q269.8630065917969 10.69197998046875 268.7850036621094 10.16597900390625Q267.7070007324219 9.63997802734375 266.22899780273434 9.63997802734375Q264.27399291992185 9.63997802734375 263.0044891357422 10.551980590820312Q261.7349853515625 11.463983154296875 261.1234832763672 12.943988037109374Q260.51198120117186 14.423992919921874 260.51198120117186 16.169000244140626Q260.51198120117186 17.89500732421875 261.1169830322266 19.375012207031247Q261.72198486328125 20.85501708984375 262.9944885253906 21.764019775390622Q264.26699218749997 22.6730224609375 266.2349975585937 22.6730224609375Z"/>
    <path d="M282.85500488281247 25.0V7.319000244140625H289.6839965820312Q291.0929992675781 7.319000244140625 292.2764984130859 7.601000976562499Q293.4599975585937 7.883001708984374 294.34499511718747 8.524002075195312Q295.2299926757812 9.16500244140625 295.7184906005859 10.248501586914063Q296.20698852539056 11.332000732421875 296.20698852539056 12.915997314453124Q296.20698852539056 14.313000488281249 295.70498657226557 15.344500732421874Q295.2029846191406 16.3760009765625 294.33598327636713 17.055999755859375Q293.4689819335937 17.73599853515625 292.3709838867187 18.077996826171876L296.1669799804687 25.0H293.12600708007807L289.63100585937497 18.53099365234375H285.5939819335937V25.0ZM285.5939819335937 16.07601318359375H289.15798950195307Q290.0549926757812 16.07601318359375 290.8274963378906 15.932012939453125Q291.59999999999997 15.7880126953125 292.1845031738281 15.43651123046875Q292.7690063476562 15.085009765625 293.09600830078125 14.459506225585937Q293.4230102539062 13.834002685546874 293.44201049804684 12.864996337890624Q293.46101074218745 11.72799072265625 292.9970092773437 11.064486694335937Q292.53300781249993 10.400982666015624 291.65400390624995 10.11448059082031Q290.775 9.827978515624999 289.5369934082031 9.827978515624999H285.5939819335937Z"/>
    <path d="M304.60500488281247 25.0V7.319000244140625H307.3439819335937V25.0Z"/>
    <path d="M314.56000366210935 25.0 321.2609985351562 7.319000244140625H324.73998413085934L331.4039794921875 25.0H328.4480041503906L327.1739990234375 21.5119873046875H318.78998413085935L317.5099792480469 25.0ZM319.68297729492184 19.0330078125H326.281005859375L322.99099121093747 9.974969482421875Z"/>
    <path d="M338.6300048828125 25.0V7.319000244140625H341.3689819335937V22.497021484375H350.7749938964844V25.0Z"/>
    <path d="M371.6800048828125 25.0V7.319000244140625H378.1169921875Q380.09699096679685 7.319000244140625 381.5389892578125 7.944500732421874Q382.9809875488281 8.570001220703123 383.7574859619141 9.885000610351561Q384.533984375 11.2 384.533984375 13.289996337890624Q384.533984375 15.293994140625 383.6504852294922 16.6554931640625Q382.76698608398436 18.0169921875 381.2369873046875 18.697991943359376Q379.7069885253906 19.37899169921875 377.7329895019531 19.37899169921875H374.4189819335937V25.0ZM374.4189819335937 16.91201171875H377.6569885253906Q379.50799560546875 16.91201171875 380.64150085449216 16.03050842285156Q381.77500610351564 15.149005126953124 381.77500610351564 13.2199951171875Q381.77500610351564 11.529986572265624 380.84300231933594 10.678982543945311Q379.91099853515624 9.827978515624999 377.9929931640625 9.827978515624999H374.4189819335937Z"/>
    <path d="M390.7600036621094 25.0 397.46099853515625 7.319000244140625H400.9399841308594L407.60397949218753 25.0H404.64800415039065L403.37399902343753 21.5119873046875H394.9899841308594L393.7099792480469 25.0ZM395.8829772949219 19.0330078125H402.48100585937505L399.1909912109375 9.974969482421875Z"/>
    <path d="M414.83000488281255 25.0V7.319000244140625H421.6589965820313Q423.06799926757816 7.319000244140625 424.251498413086 7.601000976562499Q425.4349975585938 7.883001708984374 426.31999511718755 8.524002075195312Q427.2049926757813 9.16500244140625 427.69349060058596 10.248501586914063Q428.18198852539064 11.332000732421875 428.18198852539064 12.915997314453124Q428.18198852539064 14.313000488281249 427.67998657226565 15.344500732421874Q427.17798461914066 16.3760009765625 426.3109832763672 17.055999755859375Q425.44398193359376 17.73599853515625 424.3459838867188 18.077996826171876L428.14197998046876 25.0H425.10100708007815L421.60600585937505 18.53099365234375H417.56898193359376V25.0ZM417.56898193359376 16.07601318359375H421.13298950195315Q422.0299926757813 16.07601318359375 422.80249633789066 15.932012939453125Q423.57500000000005 15.7880126953125 424.15950317382817 15.43651123046875Q424.7440063476563 15.085009765625 425.0710083007813 14.459506225585937Q425.3980102539063 13.834002685546874 425.4170104980469 12.864996337890624Q425.43601074218753 11.72799072265625 424.9720092773438 11.064486694335937Q424.5080078125 10.400982666015624 423.62900390625003 10.11448059082031Q422.75000000000006 9.827978515624999 421.5119934082032 9.827978515624999H417.56898193359376Z"/>
    <path d="M434.6850036621094 25.0 441.38599853515626 7.319000244140625H444.8649841308594L451.52897949218755 25.0H448.57300415039066L447.29899902343755 21.5119873046875H438.9149841308594L437.63497924804693 25.0ZM439.8079772949219 19.0330078125H446.40600585937506L443.1159912109375 9.974969482421875Z"/>
    <path d="M470.3600036621094 25.0 477.0609985351563 7.319000244140625H480.5399841308594L487.20397949218756 25.0H484.24800415039067L482.97399902343756 21.5119873046875H474.5899841308594L473.30997924804694 25.0ZM475.4829772949219 19.0330078125H482.08100585937507L478.79099121093753 9.974969482421875Z"/>
    <path d="M512.7000061035156 25.0 506.1410034179688 7.319000244140625H509.12797851562505L514.6049926757813 22.663018798828126L520.0400085449219 7.319000244140625H523.0019836425781L516.4739807128907 25.0Z"/>
    <path d="M530.3300048828125 25.0V7.319000244140625H533.0689819335938V25.0Z"/>
    <path d="M542.1800048828126 25.0V7.319000244140625H548.6109985351563Q551.3729980468751 7.319000244140625 553.2679962158204 8.40150146484375Q555.1629943847657 9.484002685546875 556.1424926757813 11.468502807617188Q557.121990966797 13.4530029296875 557.121990966797 16.180999755859375Q557.121990966797 18.8719970703125 556.1609924316407 20.853497314453122Q555.1999938964844 22.83499755859375 553.3079956054688 23.917498779296874Q551.4159973144532 25.0 548.6229980468751 25.0ZM544.9189819335938 22.503021240234375H548.5209960937501Q550.557000732422 22.503021240234375 551.836004638672 21.6940185546875Q553.115008544922 20.885015869140624 553.7300109863282 19.464511108398437Q554.3450134277344 18.04400634765625 554.3450134277344 16.174999999999997Q554.3450134277344 14.355993652343749 553.7425109863282 12.919989013671874Q553.140008544922 11.483984374999999 551.8710052490235 10.649981689453124Q550.6020019531251 9.81597900390625 548.5739990234376 9.81597900390625H544.9189819335938Z"/>
    <path d="M563.3850036621095 25.0 570.0859985351564 7.319000244140625H573.5649841308596L580.2289794921876 25.0H577.2730041503908L575.9989990234376 21.5119873046875H567.6149841308595L566.334979248047 25.0ZM568.5079772949221 19.0330078125H575.1060058593752L571.8159912109377 9.974969482421875Z"/>
  </g>
  <path d="M 210 548 H 990" stroke="#BF9153" stroke-width="1" opacity=".6"/>
</svg>
